<?xml version="1.0" standalone="no"?>
<!DOCTYPE svg PUBLIC "-//W3C//DTD SVG 20010904//EN"
 "http://www.w3.org/TR/2001/REC-SVG-20010904/DTD/svg10.dtd">
<svg version="1.0" xmlns="http://www.w3.org/2000/svg"
 width="512.000000pt" height="512.000000pt" viewBox="0 0 512.000000 512.000000"
 preserveAspectRatio="xMidYMid meet">
<metadata>
Created by potrace 1.14, written by Peter Selinger 2001-2017
</metadata>
<g transform="translate(0.000000,512.000000) scale(0.100000,-0.100000)"
fill="#000000" stroke="none">
<path d="M371 4423 c-60 -22 -260 -215 -296 -286 -30 -60 -34 -156 -10 -215
11 -26 200 -221 615 -637 l600 -600 -591 -590 c-468 -467 -596 -600 -615 -640
-33 -69 -33 -153 1 -221 32 -65 225 -256 286 -283 64 -30 151 -28 215 4 38 19
228 204 830 807 741 742 783 786 799 837 21 63 17 138 -10 196 -25 56 -1564
1594 -1620 1620 -53 25 -148 29 -204 8z"/>
<path d="M1612 1364 c-57 -28 -97 -73 -118 -131 -17 -49 -19 -330 -2 -384 15
-51 69 -114 122 -142 l41 -22 1620 0 1620 0 41 22 c53 28 110 92 124 140 7 24
10 101 8 209 -3 170 -3 171 -33 220 -19 30 -49 60 -79 79 l-49 30 -1622 3
-1621 2 -52 -26z"/>
</g>
</svg>
